<svg width="13" height="13" viewBox="0 0 13 13" fill="none" xmlns="http://www.w3.org/2000/svg">
<g clip-path="url(#clip0_69_1694)">
<path d="M12.5 2.00985V5.67091C12.5 5.76194 12.4655 5.84924 12.4041 5.9136C12.3427 5.97797 12.2594 6.01413 12.1725 6.01413C12.0856 6.01413 12.0023 5.97797 11.9409 5.9136C11.8795 5.84924 11.845 5.76194 11.845 5.67091V2.83816L7.16401 7.74398C7.1026 7.80825 7.01936 7.84436 6.93258 7.84436C6.84579 7.84436 6.76255 7.80825 6.70115 7.74398L4.74927 5.69894L1.05076 9.57451C0.988674 9.63514 0.906562 9.66814 0.821718 9.66657C0.736874 9.665 0.655924 9.62898 0.595921 9.5661C0.535918 9.50321 0.501548 9.41838 0.500051 9.32946C0.498554 9.24054 0.530047 9.15448 0.587896 9.08942L4.51784 4.97073C4.57925 4.90646 4.66249 4.87035 4.74927 4.87035C4.83606 4.87035 4.9193 4.90646 4.9807 4.97073L6.93258 7.01577L11.3821 2.35307H8.67922C8.59236 2.35307 8.50906 2.31691 8.44764 2.25255C8.38623 2.18818 8.35172 2.10088 8.35172 2.00985C8.35172 1.91882 8.38623 1.83152 8.44764 1.76715C8.50906 1.70279 8.59236 1.66663 8.67922 1.66663H12.1725C12.2594 1.66663 12.3427 1.70279 12.4041 1.76715C12.4655 1.83152 12.5 1.91882 12.5 2.00985Z" fill="#2368D4"/>
</g>
<defs>
<clipPath id="clip0_69_1694">
<rect width="12" height="12" fill="white" transform="translate(0.5 0.166626)"/>
</clipPath>
</defs>
</svg>
